<svg id="Layer_1" data-name="Layer 1" xmlns="http://www.w3.org/2000/svg" xmlns:xlink="http://www.w3.org/1999/xlink" viewBox="0 0 379.24 77.25"><defs><style>.cls-1{fill:#fff;}.cls-2{fill:url(#linear-gradient);}.cls-3{fill:url(#linear-gradient-2);}.cls-4{fill:url(#linear-gradient-3);}</style><linearGradient id="linear-gradient" x1="48.55" y1="89.81" x2="30.55" y2="-30.19" gradientUnits="userSpaceOnUse"><stop offset="0" stop-color="#326db4"/><stop offset="1" stop-color="#14c2f3"/></linearGradient><linearGradient id="linear-gradient-2" x1="87.18" y1="84.01" x2="69.18" y2="-35.99" xlink:href="#linear-gradient"/><linearGradient id="linear-gradient-3" x1="118.08" y1="79.38" x2="100.08" y2="-40.62" xlink:href="#linear-gradient"/></defs><title>logo-trl-blue-flag</title><path class="cls-1" d="M122.16,8.91H79.8l1.62,9.24H91.9v31.2h10.23V18.16h11.1A21.35,21.35,0,0,1,122.16,8.91Z"/><path class="cls-1" d="M113,29.19c0-28,41.48-28,41.48,0S113,57.22,113,29.19Zm30.91,0c0-14.56-20.28-14.56-20.28,0S144,43.87,144,29.19Z"/><path class="cls-1" d="M157,49.36V8.91h17.8C194.18,9,194.18,39,174.82,39h-7.45V49.36H157Zm17.74-31.2c-2.43-.06-5,0-7.4,0V29.71h7.4C180.43,29.71,180.78,18.21,174.77,18.16Z"/><path class="cls-1" d="M328.19,18.16H308.45v5.72h18.27v9.19H308.45v7.11h19.74v9.19h-30V8.91h30v9.24Z"/><path class="cls-1" d="M345.94,49.36H330.69V8.91h15.25C372.29,9,372.29,49.24,345.94,49.36ZM341,39.94h4.91c12.88,0,12.88-21.61,0-21.61H341V39.94Z"/><path class="cls-2" d="M77.42,33.42s-12.59-20.36-5.52-29c0,0-25.83-11.53-36.73,2.56a139.7,139.7,0,0,0,3,14.77,51.24,51.24,0,0,1-4.49-9.91A39.45,39.45,0,0,1,0,15C15.48,38.29,36.8,35.21,40.48,35.37S53,31.62,45.63,29a8.3,8.3,0,0,1-1.22-.56C50,27.34,61.08,22.64,77.42,33.42ZM47.21,23.94l2.38-7.79L44,12.43l7.09-1.09,2.38-7.79,2,7.11,7.09-1.09-5.86,5.49,2,7.11-5.62-3.72Z"/><path class="cls-3" d="M76.5,4.4H72.78l9.06,52.24c1.17-.3,2.36-0.6,3.57-0.89Z"/><path class="cls-4" d="M48.27,72.4s0.49-.29,1.43-0.79,2.31-1.24,4.11-2.1,4-1.88,6.55-2.93c1.28-.54,2.65-1.07,4.1-1.65s3-1.13,4.61-1.67C72.28,62.13,75.82,61,79.61,60s7.81-2,12-2.79c1.05-.19,2.11-0.41,3.19-0.59l3.25-.51c2.18-.38,4.41-0.58,6.64-0.85s4.51-.4,6.79-0.52,4.57-.25,6.87-0.22l3.44,0,3.43,0.15c2.29,0.07,4.56.3,6.81,0.5s4.47,0.57,6.66.87c1.1,0.14,2.18.39,3.25,0.59l3.19,0.64c1.06,0.2,2.08.51,3.11,0.76l3,0.79c2,0.59,3.91,1.25,5.78,1.85,0.95,0.28,1.83.69,2.73,1l2.63,1,1.28,0.51L165,63.82l2.38,1.12L169.61,66l2.11,1.16c1.36,0.77,2.66,1.48,3.86,2.18,2.33,1.52,4.38,2.81,6,4s2.82,2.17,3.66,2.82l1.29,1-1.41-.82c-0.92-.54-2.27-1.3-4-2.32-0.84-.52-1.84-1-2.89-1.53l-3.41-1.78c-1.24-.58-2.58-1.16-4-1.79l-2.14-1-2.3-.89c-3.11-1.27-6.58-2.38-10.24-3.52-1.86-.48-3.75-1-5.71-1.5s-4-.9-6-1.28l-3.12-.52c-1-.17-2.1-0.38-3.17-0.48l-3.22-.38-1.62-.2L131.68,59c-2.19-.18-4.39-0.38-6.61-0.42l-3.33-.11h-3.35c-2.23-.05-4.46.08-6.69,0.14s-4.43.28-6.63,0.44c-4.38.45-8.7,0.86-12.84,1.57s-8.14,1.41-11.92,2.21c-1.88.43-3.72,0.83-5.48,1.28l-2.61.63-2.5.66c-3.26.88-6.24,1.74-8.86,2.56S56,69.6,54.11,70.25s-3.33,1.17-4.32,1.56S48.27,72.4,48.27,72.4Z"/><path class="cls-1" d="M254.34,8.91l4.28,9.24h16.94v31.2h10.23V18.16h9.88V8.91H254.34Z"/><path class="cls-1" d="M269.87,47.85L251.61,8.39h-4.45L231.53,42.29l3.63,5.86,0.77,1.21h3.14l2.37-5.08h15.95l2.37,5.08h10.91ZM244.79,35.43l4.56-10.63L254,35.43h-9.24Z"/><path class="cls-1" d="M232.3,47.85l1,1.5H220.74l-6.93-11.9h-5.37v11.9H198.09V8.91h17.74C231.72,9,234.61,28.09,224.38,35Zm-16.47-29.7c-2.43-.06-5,0-7.4,0V28.27h7.4C221.43,28.27,221.72,18.21,215.83,18.16Z"/><path class="cls-1" d="M298.82,62.34a0.62,0.62,0,0,1,.62.63V76h6.76a0.62,0.62,0,0,1,.63.62,0.61,0.61,0,0,1-.19.45,0.59,0.59,0,0,1-.44.18h-7.38a0.6,0.6,0,0,1-.62-0.62V63a0.6,0.6,0,0,1,.18-0.44A0.61,0.61,0,0,1,298.82,62.34Z"/><path class="cls-1" d="M315.91,77.25a7.47,7.47,0,1,1,5.28-2.19A7.2,7.2,0,0,1,315.91,77.25Zm0-13.7a6.26,6.26,0,1,0,4.4,1.83A6,6,0,0,0,315.91,63.54Z"/><path class="cls-1" d="M333.52,77.25a7.49,7.49,0,0,1,0-15,7.27,7.27,0,0,1,4.56,1.55,0.59,0.59,0,0,1,.24.42,0.6,0.6,0,0,1-.12.46,0.59,0.59,0,0,1-.42.24,0.55,0.55,0,0,1-.46-0.12,6.1,6.1,0,0,0-3.8-1.28,6.23,6.23,0,1,0,4.2,10.84,0.59,0.59,0,0,1,.45-0.17,0.6,0.6,0,0,1,.44.21,0.59,0.59,0,0,1,.17.45,0.6,0.6,0,0,1-.21.44A7.24,7.24,0,0,1,333.52,77.25Z"/><path class="cls-1" d="M341.35,77.2a0.56,0.56,0,0,1-.33-0.33,0.58,0.58,0,0,1,0-.48l1.45-3.49h0l4.22-10.18,0.05-.12,0,0,0-.05,0.05,0,0,0a0.54,0.54,0,0,1,.22-0.09h0.24a0.55,0.55,0,0,1,.23.09l0,0,0.05,0,0,0.05,0,0,0.05,0.12L352,72.88h0l1.45,3.49a0.58,0.58,0,0,1,0,.48,0.56,0.56,0,0,1-.33.33,0.58,0.58,0,0,1-.24.05,0.57,0.57,0,0,1-.57-0.39l-1.29-3.11h-7.61l-1.29,3.11a0.57,0.57,0,0,1-.57.39h-0.12Zm9.2-4.69-3.29-7.94L344,72.51h6.59Z"/><path class="cls-1" d="M356.87,62.34a0.62,0.62,0,0,1,.62.63V76h6.76a0.62,0.62,0,0,1,.63.62,0.61,0.61,0,0,1-.19.45,0.59,0.59,0,0,1-.44.18h-7.38a0.6,0.6,0,0,1-.62-0.62V63a0.6,0.6,0,0,1,.18-0.44A0.61,0.61,0,0,1,356.87,62.34Z"/><path class="cls-1" d="M367,14.3a6.06,6.06,0,0,1,.81-3.06A6,6,0,0,1,370,9a6.14,6.14,0,0,1,6.13,0,6,6,0,0,1,2.25,2.24,6.12,6.12,0,0,1-2.18,8.34A6.12,6.12,0,0,1,367,14.3Zm1,0a5.12,5.12,0,0,0,7.7,4.43,5.09,5.09,0,0,0,1.87-1.87,5.13,5.13,0,0,0-7-7,5.09,5.09,0,0,0-1.88,1.87A5,5,0,0,0,368,14.3Zm7.61-1.45a1.88,1.88,0,0,1-1.25,1.9L376.29,18h-1.72L373,15.16h-0.73V18h-1.54V10.63h2.13a3.2,3.2,0,0,1,2.08.55A2.06,2.06,0,0,1,375.6,12.85ZM372.27,14h0.56a1.3,1.3,0,0,0,.91-0.29,1,1,0,0,0,.31-0.81,1,1,0,0,0-.3-0.82,1.53,1.53,0,0,0-.94-0.23h-0.55V14Z"/></svg>