<svg xmlns="http://www.w3.org/2000/svg" xmlns:xlink="http://www.w3.org/1999/xlink" viewBox="0 0 2000 572"><defs><style>.cls-1{isolation:isolate;}.cls-2,.cls-3,.cls-4,.cls-5,.cls-6,.cls-7,.cls-8{mix-blend-mode:multiply;}.cls-2{fill:url(#linear-gradient);}.cls-3{fill:url(#linear-gradient-2);}.cls-4{fill:url(#linear-gradient-3);}.cls-5{fill:url(#linear-gradient-4);}.cls-6{fill:url(#linear-gradient-5);}.cls-7{fill:url(#linear-gradient-6);}.cls-8{fill:url(#linear-gradient-7);}.cls-9{fill:#5aa3d2;}.cls-10{fill:#a0cae5;}.cls-11{fill:#094064;}</style><linearGradient id="linear-gradient" x1="1778.96" y1="153.22" x2="1778.96" y2="48.3" gradientUnits="userSpaceOnUse"><stop offset="0" stop-color="#e7f1f9" stop-opacity="0"/><stop offset="1" stop-color="#e7f2f9"/></linearGradient><linearGradient id="linear-gradient-2" x1="1675.09" y1="145.83" x2="1675.09" y2="35.08" xlink:href="#linear-gradient"/><linearGradient id="linear-gradient-3" x1="1882.84" y1="192.6" x2="1882.84" y2="34.05" xlink:href="#linear-gradient"/><linearGradient id="linear-gradient-4" x1="1510.31" y1="210.13" x2="1510.31" y2="65.88" xlink:href="#linear-gradient"/><linearGradient id="linear-gradient-5" x1="1957.35" y1="228.42" x2="1957.35" y2="109.7" xlink:href="#linear-gradient"/><linearGradient id="linear-gradient-6" x1="1600.6" y1="141.54" x2="1600.6" y2="51.2" xlink:href="#linear-gradient"/><linearGradient id="linear-gradient-7" x1="1420.09" y1="228.42" x2="1420.09" y2="96.89" xlink:href="#linear-gradient"/></defs><title>TRL-Footer-Illustration</title><g class="cls-1"><g id="Footer-Illustration"><polygon class="cls-2" points="1731.97 102.26 1731.97 145.83 1742.42 145.83 1742.42 113.93 1768.67 113.93 1768.67 93.73 1811.83 93.73 1811.83 153.22 1826.56 153.22 1826.56 124.04 1848.36 124.04 1848.36 90.64 1843.61 90.64 1843.61 86.18 1819.37 86.18 1819.37 90.64 1813.18 90.64 1813.18 88.61 1811.88 88.61 1811.27 74.66 1810.05 74.66 1809.43 88.61 1808.14 88.61 1808.14 90.64 1802.11 90.64 1802.11 57.41 1800.03 57.41 1800.03 54.91 1757.84 54.91 1757.84 57.41 1755.85 57.41 1755.85 64.28 1749.79 64.28 1749.79 62.25 1748.49 62.25 1747.88 48.3 1746.66 48.3 1746.05 62.25 1744.75 62.25 1744.75 64.28 1738.56 64.28 1738.56 59.82 1714.32 59.82 1714.32 64.28 1709.57 64.28 1709.57 102.26 1731.97 102.26"/><polygon class="cls-3" points="1652.74 113.93 1652.74 145.83 1666.12 145.83 1666.12 102.26 1688.82 102.26 1703.73 102.26 1703.73 35.08 1646.44 50.05 1646.44 113.93 1652.74 113.93"/><polygon class="cls-4" points="1903.49 124.04 1903.49 192.6 1911.49 192.6 1911.49 78.24 1854.19 34.05 1854.19 124.04 1903.49 124.04"/><polygon class="cls-5" points="1466.96 210.13 1482.91 210.13 1482.91 112.36 1553.66 112.36 1553.66 92.62 1550.52 92.62 1550.52 87.12 1550.52 86 1540.93 86 1540.93 87.12 1527.82 87.12 1527.82 84.75 1516.96 84.75 1516.96 87.12 1516.96 92.62 1511.99 92.62 1511.99 76.39 1511.99 76.39 1511.99 72.46 1511.99 68.52 1509.78 68.52 1509.78 65.88 1490.35 65.88 1490.35 68.52 1486.72 68.52 1486.72 65.88 1480.04 65.88 1480.04 68.52 1470.74 68.52 1470.74 72.46 1470.74 76.39 1470.74 207.15 1466.96 207.15 1466.96 210.13"/><polygon class="cls-6" points="1998.84 228.42 1998.79 204.41 1998.79 136.44 1995.65 136.44 1995.65 130.94 1995.65 129.82 1986.06 129.82 1986.06 130.94 1972.95 130.94 1972.95 128.57 1962.09 128.57 1962.09 130.94 1962.09 136.44 1957.12 136.44 1957.12 120.22 1957.12 120.22 1957.12 116.28 1957.12 112.34 1954.91 112.34 1954.91 109.7 1935.47 109.7 1935.47 112.34 1931.84 112.34 1931.84 109.7 1925.17 109.7 1925.17 112.34 1915.87 112.34 1915.87 116.28 1915.87 120.22 1915.87 170.66 1929.04 170.66 1929.04 153.38 1980.96 153.38 1980.96 228.42 1998.84 228.42"/><polygon class="cls-7" points="1568.73 141.54 1568.73 96.65 1638.18 96.65 1638.18 113.93 1642.06 113.93 1642.06 61.72 1642.06 57.78 1642.06 53.84 1632.76 53.84 1632.76 51.2 1626.09 51.2 1626.09 53.84 1622.45 53.84 1622.45 51.2 1603.02 51.2 1603.02 53.84 1600.81 53.84 1600.81 57.78 1600.81 61.72 1600.81 61.72 1600.81 77.94 1595.84 77.94 1595.84 72.44 1595.84 70.07 1584.98 70.07 1584.98 72.44 1571.87 72.44 1571.87 71.32 1562.28 71.32 1562.28 72.44 1562.28 77.94 1559.14 77.94 1559.14 141.54 1568.73 141.54"/><polygon class="cls-8" points="1451.52 159.22 1451.52 188.19 1466.35 188.19 1466.35 120.94 1461.59 120.94 1461.59 116.48 1437.36 116.48 1437.36 120.94 1431.17 120.94 1431.17 118.91 1429.87 118.91 1429.26 104.96 1428.03 104.96 1427.42 118.91 1426.12 118.91 1426.12 120.94 1420.09 132.62 1420.09 99.39 1418.02 99.39 1418.02 96.89 1375.82 96.89 1375.82 99.39 1373.84 99.39 1373.84 228.42 1396.68 228.42 1396.68 159.22 1451.52 159.22"/><g id="landscape"><path class="cls-9" d="M1170,466.62c0,37.07-7.43,72.58,52.1,105.38H2000V165.92C1703.23,114.91,1170,316.71,1170,466.62Z"/><path class="cls-10" d="M1938.39,365.08c2.51-21.18,11.69-98.81-70-157.49-19.3-13.87-44.07-33.35-70-44.24-21.78,2.31-43.85,5.33-66.05,9,82.71,57.32,49.06,191-66.47,264.74-29.48,18.81-63.25,33-99.89,43.7V572h226.52C1875,509.33,1930,436.12,1938.39,365.08Z"/><path class="cls-11" d="M0,143.64V572H2000V393.64C1698.56,251.62,855.58,6.43,0,143.64Z"/><path class="cls-9" d="M1.09,571.87H387.84C280.11,442.45,303,191.81,428.08,104.55q-80.44,2.15-162,8.13C-11.37,251.85.78,567.46,1.09,571.87Z"/></g><g id="Trees"><path class="cls-11" d="M1244.58,118.14a14.73,14.73,0,0,0-3-7.78,23.57,23.57,0,0,0,.72-5.8A23.32,23.32,0,0,0,1206,85.18a14.75,14.75,0,0,0-21.88,17.15,27.71,27.71,0,0,0-2.89,10.18,14.74,14.74,0,0,0-7.42,25.82,19.36,19.36,0,0,0-1.14,6.58,19.63,19.63,0,0,0,.64,5h0v0c0,.12.07.23.1.35.11.37.22.75.35,1.11.06.18.14.36.2.54l.36.88c.09.19.17.37.26.55s.28.57.43.84l.27.5c.2.34.41.67.62,1,.06.09.11.18.17.26.28.41.57.8.87,1.18.11.13.22.25.32.38s.44.51.67.75l.39.41.69.66.41.37c.27.24.55.46.84.68l.32.26q.6.44,1.23.84l.29.17c.34.2.67.4,1,.58l.46.23.92.43.5.21q.49.19,1,.36c.15,0,.3.11.46.15.49.15,1,.29,1.48.4a19.58,19.58,0,0,0,22.29,8.78v28.73h9.33V167.84a18,18,0,0,0,28.31-14.75c0-.51,0-1-.07-1.49a21.29,21.29,0,0,0-3.25-33.46Z"/><path class="cls-9" d="M1962.79,125.4a10.52,10.52,0,0,0-2.14-5.61,17.05,17.05,0,0,0,.52-4.19,16.84,16.84,0,0,0-26.22-14,10.53,10.53,0,0,0-5.71-1.67,10.64,10.64,0,0,0-10.09,14,19.92,19.92,0,0,0-2.09,7.36A10.64,10.64,0,0,0,1911.7,140a14.07,14.07,0,0,0-.82,4.75,14.29,14.29,0,0,0,.46,3.61h0c0,.09.05.17.07.25.08.27.16.54.25.8s.1.26.15.39.17.43.26.64l.18.4.32.61a3.9,3.9,0,0,0,.19.35c.14.25.29.49.45.73l.12.19c.2.29.41.57.63.85l.23.27c.16.18.32.37.48.54l.29.3.5.48.29.26c.2.17.4.34.61.5l.23.18c.29.21.58.42.89.61l.21.12c.24.15.48.29.73.42l.34.17c.21.11.43.21.66.31l.36.15.72.26.33.11c.35.11.71.21,1.07.29a14.13,14.13,0,0,0,12.15,6.9,14,14,0,0,0,4-.57v20.76h6.73V161.31a13,13,0,0,0,20.45-10.66c0-.37,0-.72,0-1.08a15.38,15.38,0,0,0-2.35-24.17Z"/><path class="cls-11" d="M1722.71,224.21a32.23,32.23,0,0,0-15-27.24c0-.55-.11-1.1-.19-1.64s-.14-.8-.23-1.2c0-.13,0-.26-.07-.39-.07-.28-.15-.55-.22-.83s-.12-.49-.2-.73-.15-.43-.22-.64-.19-.58-.3-.86-.17-.41-.26-.61-.23-.57-.36-.85-.25-.49-.38-.73-.22-.45-.34-.67c-.21-.37-.43-.72-.66-1.08a2.26,2.26,0,0,0-.16-.26c-.29-.44-.59-.87-.91-1.28a35.31,35.31,0,0,0-53.85-38.12,22.31,22.31,0,0,0-34.29,18.82,22.5,22.5,0,0,0,1.17,7.14,41.48,41.48,0,0,0-4.36,15.4,22.31,22.31,0,0,0-11.25,39.09,29.8,29.8,0,0,0-.75,17.52h0c.16.61.34,1.21.54,1.81l.09.28c.21.59.42,1.16.66,1.73l.06.15q.36.83.75,1.62l.08.17q.4.81.87,1.59l.15.26c.32.53.65,1.05,1,1.55l0,0c.34.49.69,1,1.06,1.45a1.84,1.84,0,0,1,.17.22c.37.46.76.91,1.15,1.35l.21.23c.4.44.81.87,1.24,1.28l0,0c.43.41.88.81,1.33,1.2l.27.23c.45.37.91.74,1.38,1.09l.22.16c.45.32.91.63,1.37.93l.19.13c.5.31,1,.61,1.52.89l.33.18c.53.28,1.05.55,1.59.8l.19.08c.5.23,1,.44,1.54.64l.3.12c.56.21,1.12.39,1.68.57l.36.1c.59.18,1.18.34,1.79.47a29.65,29.65,0,0,0,36.47,12.34v45.77h14.11V273.91a27.27,27.27,0,0,0,40.13-24c0-.76,0-1.51-.1-2.25A32.16,32.16,0,0,0,1722.71,224.21Z"/><path class="cls-11" d="M165,69.06a22,22,0,0,0-18.89-21.82A41.14,41.14,0,0,0,141.76,32,22.06,22.06,0,0,0,120.87,2.93,22,22,0,0,0,109,6.38a34.88,34.88,0,0,0-54.29,29A35,35,0,0,0,55.84,44q-.47.62-.9,1.26l-.15.26c-.23.35-.45.7-.65,1.07-.12.21-.23.44-.35.66s-.25.47-.36.72-.25.56-.37.84-.17.39-.25.6-.2.56-.3.85-.15.42-.22.64-.12.48-.19.72-.15.54-.22.81,0,.26-.07.39c-.08.36-.15.73-.21,1.1a22.86,22.86,0,0,0-12.15,3.87A14.55,14.55,0,0,0,17.84,74.77,26.92,26.92,0,0,0,15,84.83a14.55,14.55,0,0,0-7.34,25.5,19.24,19.24,0,0,0-1.13,6.51,19.54,19.54,0,0,0,.64,4.93h0v0c0,.12.07.23.11.34.1.37.22.74.34,1.1.06.18.14.36.2.53s.23.59.36.87.16.36.25.54.28.56.43.84l.26.49c.2.33.4.66.62,1a2.26,2.26,0,0,1,.16.26c.28.39.57.78.87,1.16l.31.37c.22.25.43.5.66.75l.39.4.68.65.4.37c.27.23.55.45.83.67l.32.26c.4.29.8.56,1.21.83l.29.17c.33.2.66.39,1,.57l.46.23.91.42.5.2c.32.13.64.25,1,.36.15.05.3.11.46.15.48.15,1,.29,1.46.4a19.35,19.35,0,0,0,16.62,9.44,19.57,19.57,0,0,0,5.4-.77v31h9.21V139.49a17.76,17.76,0,0,0,25.2-5,26.56,26.56,0,0,0,8-2.78V195H100V136.45a29.27,29.27,0,0,0,36-12.19c.6-.13,1.18-.29,1.77-.46l.35-.1c.56-.17,1.11-.36,1.66-.56l.3-.12c.52-.2,1-.41,1.53-.64l.18-.08c.53-.24,1-.51,1.56-.78l.33-.18c.51-.28,1-.57,1.5-.88l.19-.13c.46-.29.91-.6,1.35-.92l.23-.16c.46-.35.92-.7,1.36-1.07l.26-.23c.45-.38.9-.78,1.32-1.19l0,0c.42-.41.83-.84,1.23-1.27a2.09,2.09,0,0,1,.2-.22c.39-.44.77-.89,1.13-1.34l.17-.22c.37-.47.72-.94,1.06-1.43l0,0c.34-.5.66-1,1-1.53l.15-.25c.3-.52.59-1,.86-1.58l.08-.16c.26-.53.5-1.06.73-1.6,0-.06.05-.11.07-.16.23-.56.45-1.13.64-1.7,0-.1.07-.19.1-.28.19-.59.38-1.18.54-1.78h0a29.45,29.45,0,0,0-.74-17.32A22,22,0,0,0,165,69.06Z"/><path class="cls-11" d="M555.46,88.77a5.85,5.85,0,0,0-.21-1,5.77,5.77,0,0,0-.34-.81s0-.1,0-.14a6.8,6.8,0,0,0-1.3-1.71,8.13,8.13,0,0,0,.47-2.74c0-6.07-6.66-11-14.87-11a18.74,18.74,0,0,0-8.27,1.86,11.92,11.92,0,0,0-5-1.08c-5.19,0-9.39,3.11-9.39,7a5.29,5.29,0,0,0,.49,2.22,10.69,10.69,0,0,0-1.84,4.8c-4.55.49-8,3.38-8,6.88a6.38,6.38,0,0,0,3.31,5.3,7.1,7.1,0,0,0-.73,3.11,6.93,6.93,0,0,0,.42,2.35h0a.77.77,0,0,0,.07.16,4.93,4.93,0,0,0,.22.53c0,.08.08.17.13.25s.15.28.23.42l.16.26c.08.13.18.26.27.4a2,2,0,0,1,.17.23c.13.16.27.32.41.47a.58.58,0,0,0,.1.12,7.4,7.4,0,0,0,.56.56l.2.18.42.35.25.19.45.32.25.17.54.32.21.13c.25.13.51.27.78.39l.18.08.65.28.29.1.59.21.32.09.63.18.29.07.95.19c2.18,2.7,6.16,4.5,10.72,4.5a14.85,14.85,0,0,0,9.06-2.88,14.2,14.2,0,0,0,6.93,1.72c6.34,0,11.47-3.81,11.47-8.5a5.48,5.48,0,0,0,0-.7,9,9,0,0,0,4.24-7.29C561.77,93.69,559.25,90.55,555.46,88.77Z"/></g></g></g></svg>